<svg 
 xmlns="http://www.w3.org/2000/svg"
 xmlns:xlink="http://www.w3.org/1999/xlink"
 width="8px" height="16px">
<path fill-rule="evenodd"  fill="rgb(255, 255, 255)"
 d="M3.267,0.365 C3.354,0.312 3.449,0.266 3.553,0.228 C3.648,0.190 3.755,0.156 3.875,0.125 L4.530,-0.001 L4.960,-0.001 L7.988,0.228 L8.000,0.228 L7.690,2.927 L7.678,2.927 L6.009,2.756 L5.961,2.756 L5.794,2.778 L5.734,2.801 L5.544,2.893 C5.504,2.901 5.472,2.920 5.448,2.950 L5.305,3.099 C5.273,3.137 5.246,3.183 5.222,3.236 C5.198,3.282 5.178,3.332 5.162,3.385 C5.146,3.438 5.134,3.495 5.127,3.556 C5.118,3.609 5.115,3.667 5.115,3.728 L5.138,5.420 L7.594,5.444 L7.237,8.120 L5.115,8.199 L5.115,15.988 L5.103,15.999 L1.788,15.999 L1.788,8.131 L-0.000,8.131 L-0.000,5.444 L1.717,5.444 L1.717,5.420 L1.729,5.386 L1.788,2.515 L1.812,2.355 L1.812,2.275 L1.836,2.195 C1.844,2.134 1.860,2.077 1.884,2.023 C1.899,1.970 1.923,1.921 1.955,1.875 C1.987,1.761 2.031,1.658 2.086,1.566 C2.134,1.467 2.194,1.372 2.265,1.281 C2.321,1.196 2.388,1.117 2.468,1.040 C2.539,0.956 2.615,0.880 2.694,0.812 L2.694,0.800 L3.267,0.365 Z"/>
</svg>