<svg 
 xmlns="http://www.w3.org/2000/svg"
 xmlns:xlink="http://www.w3.org/1999/xlink"
 width="16px" height="16px">
<path fill-rule="evenodd"  fill="rgb(242, 242, 242)"
 d="M12.908,-0.001 L3.092,-0.001 C1.387,-0.001 -0.000,1.386 -0.000,3.091 L-0.000,6.357 L-0.000,12.908 C-0.000,14.613 1.387,15.999 3.092,15.999 L12.908,15.999 C14.613,15.999 16.000,14.613 16.000,12.908 L16.000,6.357 L16.000,3.091 C16.000,1.386 14.613,-0.001 12.908,-0.001 ZM13.795,1.844 L14.148,1.842 L14.148,2.194 L14.148,4.554 L11.445,4.563 L11.436,1.851 L13.795,1.844 ZM5.716,6.357 C6.229,5.648 7.060,5.183 8.000,5.183 C8.940,5.183 9.771,5.648 10.283,6.357 C10.617,6.820 10.816,7.386 10.816,8.000 C10.816,9.552 9.552,10.815 8.000,10.815 C6.447,10.815 5.184,9.552 5.184,8.000 C5.184,7.386 5.383,6.820 5.716,6.357 ZM14.441,12.908 C14.441,13.753 13.753,14.441 12.908,14.441 L3.092,14.441 C2.246,14.441 1.559,13.753 1.559,12.908 L1.559,6.357 L3.947,6.357 C3.741,6.865 3.625,7.419 3.625,8.000 C3.625,10.411 5.587,12.374 8.000,12.374 C10.412,12.374 12.375,10.411 12.375,8.000 C12.375,7.419 12.258,6.865 12.052,6.357 L14.441,6.357 L14.441,12.908 Z"/>
</svg>