<svg 
 xmlns="http://www.w3.org/2000/svg"
 xmlns:xlink="http://www.w3.org/1999/xlink"
 width="20px" height="16px">
<path fill-rule="evenodd"  fill="rgb(255, 255, 255)"
 d="M18.400,15.223 L1.600,15.223 C0.936,15.223 0.400,14.686 0.400,14.023 L0.400,2.816 L5.919,7.908 L1.377,14.101 L7.500,9.366 L9.271,11.001 C9.627,11.268 10.003,11.227 9.989,11.227 C10.333,11.229 10.643,11.049 10.746,10.981 L10.719,11.007 C10.814,10.934 10.799,10.947 10.746,10.981 L12.595,9.271 L18.639,14.094 L14.014,7.957 L19.600,2.788 L19.600,14.023 C19.600,14.686 19.063,15.223 18.400,15.223 ZM0.400,2.023 C0.400,1.360 0.936,0.823 1.600,0.823 L18.400,0.823 C19.063,0.823 19.600,1.360 19.600,2.023 L9.994,8.897 L0.400,2.023 Z"/>
</svg>