<?xml version="1.0" standalone="no"?>
<!DOCTYPE svg PUBLIC "-//W3C//DTD SVG 20010904//EN"
 "http://www.w3.org/TR/2001/REC-SVG-20010904/DTD/svg10.dtd">
<svg version="1.0" xmlns="http://www.w3.org/2000/svg"
 width="260.000000pt" height="260.000000pt" viewBox="0 0 260.000000 260.000000"
 preserveAspectRatio="xMidYMid meet">
<metadata>
Created by potrace 1.11, written by Peter Selinger 2001-2013
</metadata>
<g transform="translate(0.000000,260.000000) scale(0.100000,-0.100000)"
fill="#000000" stroke="none">
<path d="M2345 2398 c-33 -10 -70 -17 -82 -15 -12 2 -20 0 -17 -4 3 -5 -6 -9
-19 -9 -37 0 -87 -20 -144 -58 -29 -19 -53 -37 -53 -39 0 -2 4 -2 9 2 6 3 97
37 203 75 179 64 241 93 103 48z"/>
<path d="M1278 2045 c-10 -16 -18 -33 -18 -36 0 -12 202 33 233 52 l32 20
-114 -3 -114 -3 -19 -30z"/>
<path d="M1660 2042 c0 -4 11 -36 24 -69 56 -144 96 -310 143 -598 28 -174 24
-455 -9 -660 -15 -88 -30 -179 -34 -202 -6 -38 -4 -43 13 -43 10 0 25 6 32 12
11 10 13 10 7 1 -6 -10 16 -13 92 -13 l100 0 7 238 c9 287 4 369 -34 554 -63
303 -95 415 -168 593 -65 154 -89 189 -136 193 -20 2 -37 -1 -37 -6z m243
-1276 c3 -8 -1 -20 -9 -26 -12 -10 -14 -8 -14 14 0 28 14 35 23 12z m-13 -50
c0 -3 -4 -8 -10 -11 -5 -3 -10 -1 -10 4 0 6 5 11 10 11 6 0 10 -2 10 -4z m0
-201 c-7 -9 -15 -13 -17 -11 -7 7 7 26 19 26 6 0 6 -6 -2 -15z"/>
<path d="M1050 1704 c-146 -31 -269 -126 -305 -235 -22 -65 -15 -168 14 -234
47 -105 176 -194 391 -266 190 -63 235 -101 227 -192 -5 -53 -24 -80 -77 -107
-51 -26 -181 -21 -245 10 -55 26 -69 47 -88 120 l-14 55 -127 3 c-146 3 -147
3 -128 -85 17 -82 50 -139 117 -201 97 -90 218 -132 380 -132 168 0 268 34
361 122 64 60 94 130 94 217 0 194 -117 311 -416 414 -126 44 -198 80 -218
109 -23 32 -20 100 4 130 48 62 201 81 282 36 41 -22 57 -48 82 -130 5 -16 20
-18 134 -18 71 0 131 2 134 5 10 10 -13 121 -34 165 -29 60 -112 142 -178 175
-103 52 -257 68 -390 39z"/>
</g>
</svg>
